<?xml version="1.0" encoding="utf-8"?>
<!-- Generator: Adobe Illustrator 23.0.2, SVG Export Plug-In . SVG Version: 6.00 Build 0)  -->
<svg version="1.1" id="Layer_1" xmlns="http://www.w3.org/2000/svg" xmlns:xlink="http://www.w3.org/1999/xlink" x="0px" y="0px"
	 viewBox="0 0 19 19" style="enable-background:new 0 0 19 19;" xml:space="preserve">
<style type="text/css">
	.st0{fill:#E82D2D;}
	.st1{fill:#FFFFFF;}
</style>
<g>
	<circle class="st0" cx="9.5" cy="9.5" r="9.5"/>
	<g>
		<path class="st1" d="M6.89,8.54c0.06-0.25,0.11-0.46,0.16-0.67C7.06,7.83,7.11,7.8,7.14,7.78c0.64-0.24,1.27-0.52,1.95-0.6
			c0.6-0.07,1.19-0.02,1.71,0.34c0.51,0.35,0.69,0.85,0.68,1.45c-0.02,0.86-0.33,1.65-0.54,2.46c-0.17,0.66-0.33,1.32-0.48,1.99
			c-0.03,0.15-0.03,0.32-0.01,0.48c0.05,0.36,0.21,0.51,0.58,0.57c0.39,0.06,0.76,0,1.13-0.13c0.06-0.02,0.13-0.04,0.22-0.07
			c-0.06,0.25-0.11,0.46-0.17,0.67c-0.01,0.03-0.05,0.07-0.08,0.08c-0.58,0.2-1.14,0.44-1.73,0.57c-0.55,0.13-1.12,0.08-1.66-0.14
			c-0.66-0.28-1.04-0.91-0.99-1.64c0.04-0.75,0.27-1.45,0.47-2.17c0.18-0.66,0.37-1.33,0.52-2c0.06-0.27,0.04-0.55,0.02-0.83
			c-0.02-0.25-0.19-0.4-0.44-0.46C7.89,8.26,7.49,8.33,7.09,8.48C7.03,8.5,6.97,8.51,6.89,8.54z"/>
		<circle class="st1" cx="9.63" cy="4.61" r="1.46"/>
	</g>
</g>
</svg>
