<?xml version="1.0" encoding="utf-8"?>
<!-- Generator: Adobe Illustrator 23.0.2, SVG Export Plug-In . SVG Version: 6.00 Build 0)  -->
<svg version="1.1" id="Layer_1" xmlns="http://www.w3.org/2000/svg" xmlns:xlink="http://www.w3.org/1999/xlink" x="0px" y="0px"
	 viewBox="0 0 246 71" style="enable-background:new 0 0 246 71;" xml:space="preserve">
<style type="text/css">
	.st0{fill:#FFFFFF;}
	.st1{fill:#E82D2D;}
</style>
<g>
	<g>
		<path class="st0" d="M16.37,70.09c-0.88,0-1.62-0.31-2.24-0.93c-0.62-0.62-0.93-1.37-0.93-2.24c0-0.87,0.31-1.62,0.93-2.24
			c0.62-0.62,1.37-0.93,2.24-0.93c0.88,0,1.62,0.31,2.24,0.93c0.62,0.62,0.93,1.37,0.93,2.24c0,0.87-0.31,1.62-0.93,2.24
			C17.99,69.79,17.25,70.09,16.37,70.09z M16.37,69.64c0.75,0,1.39-0.26,1.92-0.79c0.53-0.53,0.79-1.17,0.79-1.92
			c0-0.75-0.27-1.39-0.79-1.92c-0.53-0.53-1.17-0.79-1.92-0.79c-0.75,0-1.39,0.26-1.92,0.79c-0.53,0.53-0.79,1.17-0.79,1.92
			c0,0.75,0.27,1.39,0.79,1.92C14.98,69.38,15.62,69.64,16.37,69.64z M17.54,67.62l0.44,0.14c-0.08,0.16-0.19,0.31-0.33,0.44
			c-0.35,0.35-0.78,0.53-1.28,0.53c-0.5,0-0.93-0.18-1.28-0.53c-0.35-0.35-0.53-0.78-0.53-1.28s0.18-0.93,0.53-1.28
			c0.35-0.35,0.78-0.53,1.28-0.53c0.5,0,0.93,0.18,1.28,0.53c0.14,0.14,0.25,0.28,0.33,0.44l-0.44,0.14
			c-0.06-0.09-0.13-0.18-0.21-0.27c-0.27-0.27-0.59-0.4-0.96-0.4c-0.37,0-0.69,0.13-0.96,0.4c-0.27,0.27-0.4,0.58-0.4,0.96
			c0,0.37,0.13,0.69,0.4,0.96c0.27,0.27,0.59,0.4,0.96,0.4c0.37,0,0.69-0.13,0.96-0.4C17.42,67.8,17.49,67.71,17.54,67.62z"/>
		<path class="st0" d="M24.76,66.5c0.16-0.2,0.24-0.43,0.24-0.69c0-0.05,0-0.1-0.01-0.14c-0.04-0.31-0.18-0.56-0.42-0.76
			c-0.21-0.16-0.44-0.24-0.69-0.24c-0.05,0-0.1,0-0.15,0.01c-0.31,0.04-0.56,0.18-0.76,0.43c-0.16,0.21-0.24,0.43-0.24,0.68h-0.45
			V65.7c0-0.31,0.11-0.6,0.34-0.89c0.27-0.34,0.62-0.54,1.06-0.59c0.07-0.01,0.13-0.01,0.2-0.01c0.35,0,0.67,0.11,0.96,0.34
			c0.34,0.27,0.54,0.62,0.6,1.06c0.01,0.07,0.01,0.13,0.01,0.19v0.01c0,0.35-0.11,0.67-0.34,0.96l-1.9,2.41h2.24v0.45h-3.17
			l0.35-0.45L24.76,66.5z"/>
		<path class="st0" d="M27.5,69.64c-1.06,0-1.58-0.64-1.58-1.92v-1.58c0-1.28,0.53-1.92,1.58-1.92c1.06,0,1.58,0.64,1.58,1.92v1.58
			C29.08,69,28.55,69.64,27.5,69.64z M26.37,67.72c0,0.98,0.38,1.47,1.13,1.47c0.75,0,1.13-0.49,1.13-1.47v-1.58
			c0-0.98-0.38-1.47-1.13-1.47c-0.75,0-1.13,0.49-1.13,1.47V67.72z"/>
		<path class="st0" d="M30.44,64.66h-0.91v-0.45h1.36v5.43h-0.45V64.66z"/>
		<path class="st0" d="M33.36,67.32c-0.01,0-0.01,0-0.02,0c-0.14,0.04-0.29,0.06-0.43,0.06c-0.27,0-0.52-0.07-0.77-0.21
			c-0.38-0.22-0.63-0.54-0.74-0.96c-0.04-0.14-0.06-0.29-0.06-0.43c0-0.27,0.07-0.53,0.22-0.77c0.22-0.38,0.54-0.63,0.96-0.74
			c0.14-0.04,0.28-0.05,0.42-0.05c0.27,0,0.53,0.07,0.78,0.22c0.38,0.22,0.62,0.54,0.74,0.96c0.04,0.14,0.06,0.29,0.06,0.42
			c0,0.27-0.07,0.53-0.22,0.78l-1.76,3.05h-0.53L33.36,67.32z M33.91,66.37c0.11-0.18,0.16-0.37,0.16-0.56
			c0-0.1-0.03-0.25-0.08-0.45c-0.05-0.2-0.22-0.38-0.49-0.54c-0.18-0.1-0.37-0.15-0.56-0.15c-0.1,0-0.25,0.03-0.45,0.08
			c-0.2,0.05-0.38,0.22-0.54,0.49c-0.1,0.18-0.15,0.36-0.15,0.55c0,0.1,0.03,0.25,0.08,0.45c0.05,0.2,0.22,0.38,0.49,0.54
			c0.18,0.1,0.36,0.15,0.56,0.15c0.1,0,0.2-0.01,0.3-0.04c0.3-0.08,0.52-0.24,0.67-0.51L33.91,66.37z"/>
		<path class="st0" d="M38.39,65.84l-0.65,3.8h-0.48l0.8-4.59l0.15-0.84l0.32,0.77l1.45,3.47l1.45-3.47l0.32-0.77l0.15,0.84
			l0.8,4.59h-0.48l-0.65-3.8l-1.34,3.2l-0.25,0.6l-0.25-0.6L38.39,65.84z"/>
		<path class="st0" d="M43.71,69.19h3.17v0.45h-3.62v-5.43h3.62v0.45h-3.17v2.04h3.17v0.45h-3.17V69.19z"/>
		<path class="st0" d="M47.59,69.64v-5.43h1.62c0.75,0,1.39,0.26,1.92,0.79c0.53,0.53,0.79,1.17,0.79,1.92
			c0,0.75-0.26,1.39-0.79,1.92c-0.53,0.53-1.17,0.79-1.92,0.79H47.59z M48.05,64.66v4.53h1.16c0.62,0,1.16-0.22,1.6-0.66
			c0.44-0.44,0.66-0.97,0.66-1.6c0-0.63-0.22-1.16-0.66-1.6c-0.44-0.44-0.98-0.66-1.6-0.66H48.05z"/>
		<path class="st0" d="M53.06,69.64H52.6v-5.43h0.45V69.64z"/>
		<path class="st0" d="M57.35,67.83h-2.58l-0.91,1.81h-0.52l2.46-4.91l0.26-0.52l0.26,0.52l2.45,4.91h-0.52L57.35,67.83z
			 M54.99,67.38h2.13l-1.06-2.13L54.99,67.38z"/>
		<path class="st1" d="M60.55,67.15l2.17,2.49h-0.59l-2.17-2.49h-0.45v2.49h-0.45v-5.43h2.15c0.98,0,1.47,0.49,1.47,1.47
			c0,0.98-0.49,1.47-1.47,1.47H60.55z M59.51,64.66v2.04h1.7c0.68,0,1.02-0.34,1.02-1.02s-0.34-1.02-1.02-1.02H59.51z"/>
		<path class="st1" d="M63.82,69.19h3.17v0.45h-3.62v-5.43h3.62v0.45h-3.17v2.04h3.17v0.45h-3.17V69.19z"/>
		<path class="st1" d="M71.31,67.83h-2.58l-0.91,1.81H67.3l2.46-4.91l0.26-0.52l0.26,0.52l2.45,4.91h-0.52L71.31,67.83z
			 M68.95,67.38h2.13l-1.06-2.13L68.95,67.38z"/>
		<path class="st1" d="M73.47,67.15v2.49h-0.45v-5.43h2.15c0.98,0,1.47,0.49,1.47,1.47c0,0.98-0.49,1.47-1.47,1.47H73.47z
			 M73.47,64.66v2.04h1.7c0.68,0,1.02-0.34,1.02-1.02s-0.34-1.02-1.02-1.02H73.47z"/>
		<path class="st1" d="M77.71,69.19h3.17v0.45h-3.62v-5.43h3.62v0.45h-3.17v2.04h3.17v0.45h-3.17V69.19z"/>
		<path class="st1" d="M83.09,67.15l2.17,2.49h-0.59l-2.17-2.49h-0.45v2.49h-0.45v-5.43h2.15c0.98,0,1.47,0.49,1.47,1.47
			c0,0.98-0.49,1.47-1.47,1.47H83.09z M82.05,64.66v2.04h1.7c0.68,0,1.02-0.34,1.02-1.02s-0.34-1.02-1.02-1.02H82.05z"/>
		<path class="st0" d="M87.97,64.21h0.45v2.42c0.02-0.03,0.05-0.05,0.08-0.08c0.35-0.35,0.78-0.53,1.28-0.53
			c0.5,0,0.93,0.18,1.28,0.53c0.35,0.35,0.53,0.78,0.53,1.28s-0.18,0.93-0.53,1.28c-0.35,0.35-0.78,0.53-1.28,0.53
			c-0.5,0-0.93-0.18-1.28-0.53c-0.03-0.03-0.05-0.05-0.08-0.08v0.61h-0.45V64.21z M88.42,67.82v0.03c0,0.37,0.14,0.68,0.4,0.95
			c0.27,0.27,0.59,0.4,0.96,0.4c0.37,0,0.69-0.13,0.96-0.4c0.27-0.27,0.4-0.58,0.4-0.96c0-0.37-0.13-0.69-0.4-0.96
			c-0.27-0.27-0.59-0.4-0.96-0.4c-0.37,0-0.69,0.13-0.96,0.4C88.55,67.13,88.42,67.45,88.42,67.82z"/>
		<path class="st0" d="M93.08,69.17l-1.57-3.15h0.48l1.34,2.67l1.34-2.67h0.47L92.63,71h-0.48L93.08,69.17z"/>
		<path class="st1" d="M98.8,66.67c-0.32-0.16-0.54-0.41-0.66-0.75c-0.05-0.14-0.08-0.29-0.08-0.43c0-0.19,0.04-0.38,0.14-0.56
			c0.16-0.32,0.41-0.54,0.75-0.66c0.14-0.05,0.28-0.08,0.43-0.08c0.19,0,0.38,0.05,0.57,0.14c0.27,0.13,0.47,0.33,0.6,0.59
			l-0.39,0.25c-0.08-0.2-0.22-0.35-0.41-0.44c-0.12-0.06-0.25-0.09-0.38-0.09c-0.09,0-0.21,0.03-0.37,0.08
			c-0.16,0.05-0.29,0.19-0.39,0.4c-0.06,0.12-0.09,0.24-0.09,0.37c0,0.09,0.03,0.21,0.08,0.37c0.05,0.16,0.19,0.29,0.4,0.39
			l0.97,0.48c0.38,0.19,0.63,0.48,0.77,0.87c0.06,0.17,0.09,0.34,0.09,0.5c0,0.22-0.05,0.44-0.16,0.67
			c-0.19,0.38-0.48,0.64-0.88,0.77c-0.17,0.06-0.34,0.09-0.51,0.09c-0.22,0-0.45-0.05-0.67-0.16c-0.36-0.17-0.6-0.45-0.75-0.82
			l0.39-0.26c0.01,0.02,0.01,0.04,0.01,0.05c0.1,0.28,0.28,0.49,0.54,0.62c0.15,0.08,0.31,0.11,0.47,0.11c0.12,0,0.28-0.03,0.48-0.1
			c0.2-0.07,0.37-0.24,0.5-0.5c0.08-0.15,0.11-0.31,0.11-0.47c0-0.11-0.02-0.23-0.06-0.35c-0.1-0.28-0.28-0.49-0.54-0.62L98.8,66.67
			z"/>
		<path class="st1" d="M104.83,67.83h-2.58l-0.91,1.81h-0.52l2.46-4.91l0.26-0.52l0.26,0.52l2.45,4.91h-0.52L104.83,67.83z
			 M102.48,67.38h2.13l-1.06-2.13L102.48,67.38z"/>
		<path class="st1" d="M107.25,66.67c-0.32-0.16-0.54-0.41-0.66-0.75c-0.05-0.14-0.08-0.29-0.08-0.43c0-0.19,0.04-0.38,0.14-0.56
			c0.16-0.32,0.41-0.54,0.75-0.66c0.14-0.05,0.28-0.08,0.43-0.08c0.19,0,0.38,0.05,0.57,0.14c0.27,0.13,0.47,0.33,0.6,0.59
			l-0.39,0.25c-0.08-0.2-0.22-0.35-0.41-0.44c-0.12-0.06-0.25-0.09-0.38-0.09c-0.09,0-0.21,0.03-0.37,0.08
			c-0.16,0.05-0.29,0.19-0.39,0.4c-0.06,0.12-0.09,0.24-0.09,0.37c0,0.09,0.03,0.21,0.08,0.37c0.05,0.16,0.19,0.29,0.4,0.39
			l0.97,0.48c0.38,0.19,0.63,0.48,0.77,0.87c0.06,0.17,0.09,0.34,0.09,0.5c0,0.22-0.05,0.44-0.16,0.67
			c-0.19,0.38-0.48,0.64-0.88,0.77c-0.17,0.06-0.34,0.09-0.51,0.09c-0.22,0-0.45-0.05-0.67-0.16c-0.36-0.17-0.6-0.45-0.75-0.82
			l0.39-0.26c0.01,0.02,0.01,0.04,0.01,0.05c0.1,0.28,0.28,0.49,0.54,0.62c0.15,0.08,0.31,0.11,0.47,0.11c0.12,0,0.28-0.03,0.48-0.1
			c0.2-0.07,0.37-0.24,0.5-0.5c0.08-0.15,0.11-0.31,0.11-0.47c0-0.11-0.02-0.23-0.06-0.35c-0.1-0.28-0.28-0.49-0.54-0.62
			L107.25,66.67z"/>
		<path class="st1" d="M109.65,68.28l0.36-0.45l2.36-3l0.45-0.58v3.58h0.45v0.45h-0.45v1.36h-0.45v-1.36H109.65z M110.57,67.83h1.8
			v-2.29L110.57,67.83z"/>
		<path class="st1" d="M114.63,64.66h-0.91v-0.45h1.36v5.43h-0.45V64.66z"/>
		<path class="st0" d="M120.36,67.18c-0.08,0-0.14-0.03-0.2-0.08c-0.05-0.05-0.08-0.12-0.08-0.2c0-0.08,0.03-0.15,0.08-0.2
			c0.05-0.06,0.12-0.08,0.2-0.08c0.08,0,0.15,0.03,0.2,0.08c0.06,0.06,0.08,0.12,0.08,0.2c0,0.08-0.03,0.14-0.08,0.2
			C120.51,67.16,120.44,67.18,120.36,67.18z"/>
		<path class="st0" d="M129.19,67.83h-2.58l-0.9,1.81h-0.52l2.46-4.91l0.26-0.52l0.26,0.52l2.45,4.91h-0.52L129.19,67.83z
			 M126.84,67.38h2.13l-1.06-2.13L126.84,67.38z"/>
		<path class="st0" d="M130.9,64.21h0.45v5.43h-0.45V64.21z"/>
		<path class="st0" d="M132.25,64.21h0.45v5.43h-0.45V64.21z"/>
		<path class="st0" d="M135.91,67.6v2.04h-0.45v-3.62h0.45v0.48l0.01-0.01c0.25-0.25,0.55-0.4,0.89-0.45
			c0.07-0.01,0.15-0.01,0.23-0.01c0.18,0,0.35,0.03,0.5,0.08l-0.15,0.43c-0.11-0.04-0.23-0.05-0.36-0.05
			c-0.08,0-0.15,0.01-0.23,0.02c-0.22,0.04-0.41,0.14-0.57,0.31C136.02,67.02,135.91,67.29,135.91,67.6z"/>
		<path class="st0" d="M138.13,65.51c-0.08,0-0.15-0.03-0.2-0.08c-0.05-0.05-0.08-0.12-0.08-0.2c0-0.08,0.03-0.14,0.08-0.2
			c0.05-0.06,0.12-0.08,0.2-0.08c0.08,0,0.15,0.03,0.2,0.08c0.06,0.06,0.08,0.12,0.08,0.2c0,0.08-0.03,0.14-0.08,0.2
			C138.27,65.48,138.21,65.51,138.13,65.51z M137.9,66.02h0.45v3.62h-0.45V66.02z"/>
		<path class="st0" d="M142.11,66.63v-0.61h0.45v3.17c0,0.5-0.18,0.93-0.53,1.28c-0.35,0.35-0.78,0.53-1.28,0.53
			s-0.93-0.18-1.28-0.53c-0.12-0.12-0.22-0.24-0.29-0.38h0.57c0.01,0.02,0.03,0.04,0.05,0.05c0.27,0.27,0.59,0.4,0.96,0.4
			c0.37,0,0.69-0.13,0.96-0.4c0.27-0.27,0.4-0.58,0.4-0.96v-0.16c-0.02,0.03-0.05,0.05-0.08,0.08c-0.35,0.35-0.78,0.53-1.28,0.53
			s-0.93-0.18-1.28-0.53c-0.35-0.35-0.53-0.78-0.53-1.28s0.18-0.93,0.53-1.28c0.35-0.35,0.78-0.53,1.28-0.53s0.93,0.18,1.28,0.53
			C142.06,66.58,142.09,66.61,142.11,66.63z M142.11,67.85v-0.03c0-0.37-0.14-0.68-0.4-0.95c-0.27-0.27-0.59-0.4-0.96-0.4
			c-0.37,0-0.69,0.13-0.96,0.4s-0.4,0.58-0.4,0.96c0,0.37,0.13,0.69,0.4,0.96s0.59,0.4,0.96,0.4c0.37,0,0.69-0.13,0.96-0.4
			C141.98,68.53,142.11,68.21,142.11,67.85z"/>
		<path class="st0" d="M146.3,66.49c0.31,0.31,0.46,0.68,0.46,1.12v2.04h-0.45v-2.04c0-0.31-0.11-0.58-0.33-0.8
			c-0.22-0.22-0.49-0.33-0.8-0.33c-0.31,0-0.58,0.11-0.8,0.33c-0.22,0.22-0.33,0.49-0.33,0.8v2.04h-0.45v-5.43h0.45v2.29l0.01-0.01
			c0.31-0.31,0.68-0.46,1.12-0.46C145.61,66.02,145.99,66.18,146.3,66.49z"/>
		<path class="st0" d="M147.73,66.02v-1.81h0.45v1.81h0.91v0.45h-0.91v3.17h-0.45v-3.17h-0.9v-0.45H147.73z"/>
		<path class="st0" d="M149.86,67.62c-0.2-0.11-0.34-0.28-0.41-0.5c-0.03-0.09-0.04-0.17-0.04-0.25c0-0.13,0.04-0.26,0.1-0.39
			c0.11-0.2,0.28-0.34,0.5-0.41c0.08-0.02,0.17-0.04,0.25-0.04c0.14,0,0.27,0.03,0.4,0.1c0.2,0.11,0.34,0.28,0.41,0.5l0.02,0.08
			l-0.44,0.15c0-0.03,0-0.06-0.01-0.1c-0.03-0.1-0.1-0.18-0.19-0.23c-0.06-0.04-0.13-0.05-0.19-0.05c-0.04,0-0.09,0.01-0.16,0.03
			c-0.07,0.02-0.13,0.08-0.18,0.18c-0.03,0.06-0.05,0.13-0.05,0.19c0,0.04,0.01,0.07,0.02,0.11c0.03,0.1,0.1,0.18,0.19,0.24
			l0.74,0.39c0.26,0.14,0.44,0.35,0.53,0.63c0.03,0.11,0.05,0.21,0.05,0.32c0,0.17-0.04,0.34-0.13,0.5
			c-0.14,0.26-0.35,0.44-0.64,0.53c-0.11,0.03-0.22,0.05-0.32,0.05c-0.17,0-0.33-0.04-0.49-0.13c-0.26-0.14-0.44-0.35-0.53-0.64
			c-0.02-0.07-0.04-0.14-0.04-0.2l0.45-0.1c0,0.06,0.01,0.12,0.03,0.18c0.05,0.17,0.15,0.29,0.3,0.37c0.09,0.05,0.18,0.08,0.28,0.08
			c0.06,0,0.15-0.02,0.27-0.05c0.11-0.04,0.21-0.13,0.29-0.28c0.05-0.09,0.07-0.19,0.07-0.29c0-0.06-0.02-0.15-0.05-0.26
			c-0.03-0.11-0.13-0.21-0.28-0.29L149.86,67.62z"/>
		<path class="st0" d="M154.47,67.6v2.04h-0.45v-3.62h0.45v0.48l0.01-0.01c0.25-0.25,0.55-0.4,0.89-0.45
			c0.07-0.01,0.15-0.01,0.23-0.01c0.18,0,0.35,0.03,0.5,0.08l-0.15,0.43c-0.11-0.04-0.23-0.05-0.36-0.05
			c-0.08,0-0.15,0.01-0.23,0.02c-0.22,0.04-0.41,0.14-0.57,0.31C154.58,67.02,154.47,67.29,154.47,67.6z"/>
		<path class="st0" d="M156.32,67.83c0,0.37,0.13,0.69,0.4,0.96s0.59,0.4,0.96,0.4c0.37,0,0.69-0.13,0.96-0.4
			c0.08-0.08,0.16-0.17,0.21-0.27l0.44,0.14c-0.08,0.16-0.2,0.31-0.33,0.44c-0.35,0.35-0.78,0.53-1.28,0.53s-0.93-0.18-1.28-0.53
			c-0.35-0.35-0.53-0.78-0.53-1.28s0.18-0.93,0.53-1.28c0.35-0.35,0.73-0.53,1.14-0.53c0.5,0,0.93,0.18,1.28,0.53
			c0.35,0.35,0.53,0.78,0.53,1.28H156.32z M158.83,67.38c-0.07-0.19-0.18-0.36-0.33-0.51c-0.27-0.27-0.59-0.4-0.96-0.4
			c-0.28,0-0.56,0.13-0.82,0.4c-0.15,0.15-0.26,0.32-0.33,0.51H158.83z"/>
		<path class="st0" d="M160.24,67.62c-0.2-0.11-0.34-0.28-0.41-0.5c-0.03-0.09-0.04-0.17-0.04-0.25c0-0.13,0.04-0.26,0.1-0.39
			c0.11-0.2,0.28-0.34,0.5-0.41c0.08-0.02,0.17-0.04,0.25-0.04c0.14,0,0.27,0.03,0.4,0.1c0.2,0.11,0.34,0.28,0.41,0.5l0.02,0.08
			l-0.44,0.15c0-0.03,0-0.06-0.01-0.1c-0.03-0.1-0.1-0.18-0.19-0.23c-0.06-0.04-0.13-0.05-0.19-0.05c-0.04,0-0.09,0.01-0.16,0.03
			c-0.07,0.02-0.13,0.08-0.18,0.18c-0.03,0.06-0.05,0.13-0.05,0.19c0,0.04,0.01,0.07,0.02,0.11c0.03,0.1,0.1,0.18,0.19,0.24
			l0.74,0.39c0.26,0.14,0.44,0.35,0.53,0.63c0.03,0.11,0.05,0.21,0.05,0.32c0,0.17-0.04,0.34-0.13,0.5
			c-0.14,0.26-0.35,0.44-0.64,0.53c-0.11,0.03-0.22,0.05-0.32,0.05c-0.17,0-0.33-0.04-0.49-0.13c-0.26-0.14-0.44-0.35-0.53-0.64
			c-0.02-0.07-0.04-0.14-0.04-0.2l0.45-0.1c0,0.06,0.01,0.12,0.03,0.18c0.05,0.17,0.15,0.29,0.3,0.37c0.09,0.05,0.18,0.08,0.28,0.08
			c0.06,0,0.15-0.02,0.27-0.05c0.11-0.04,0.21-0.13,0.29-0.28c0.05-0.09,0.07-0.19,0.07-0.29c0-0.06-0.02-0.15-0.05-0.26
			c-0.03-0.11-0.13-0.21-0.28-0.29L160.24,67.62z"/>
		<path class="st0" d="M162.6,67.83c0,0.37,0.13,0.69,0.4,0.96c0.27,0.27,0.59,0.4,0.96,0.4c0.37,0,0.69-0.13,0.96-0.4
			c0.08-0.08,0.16-0.17,0.21-0.27l0.44,0.14c-0.08,0.16-0.2,0.31-0.33,0.44c-0.35,0.35-0.78,0.53-1.28,0.53
			c-0.5,0-0.93-0.18-1.28-0.53c-0.35-0.35-0.53-0.78-0.53-1.28s0.18-0.93,0.53-1.28c0.35-0.35,0.73-0.53,1.14-0.53
			c0.5,0,0.93,0.18,1.28,0.53c0.35,0.35,0.53,0.78,0.53,1.28H162.6z M165.11,67.38c-0.07-0.19-0.18-0.36-0.33-0.51
			c-0.27-0.27-0.59-0.4-0.96-0.4c-0.28,0-0.56,0.13-0.82,0.4c-0.15,0.15-0.26,0.32-0.33,0.51H165.11z"/>
		<path class="st0" d="M166.63,67.6v2.04h-0.45v-3.62h0.45v0.48l0.01-0.01c0.25-0.25,0.55-0.4,0.89-0.45
			c0.07-0.01,0.15-0.01,0.23-0.01c0.18,0,0.35,0.03,0.5,0.08l-0.15,0.43c-0.11-0.04-0.23-0.05-0.36-0.05
			c-0.08,0-0.15,0.01-0.23,0.02c-0.22,0.04-0.41,0.14-0.57,0.31C166.74,67.02,166.63,67.29,166.63,67.6z"/>
		<path class="st0" d="M170.11,69.17l-1.58-3.15h0.48l1.34,2.67l1.34-2.67h0.48l-1.57,3.15l-0.24,0.48L170.11,69.17z"/>
		<path class="st0" d="M172.59,67.83c0,0.37,0.13,0.69,0.4,0.96s0.59,0.4,0.96,0.4c0.37,0,0.69-0.13,0.96-0.4
			c0.08-0.08,0.16-0.17,0.21-0.27l0.44,0.14c-0.08,0.16-0.2,0.31-0.33,0.44c-0.35,0.35-0.78,0.53-1.28,0.53s-0.93-0.18-1.28-0.53
			c-0.35-0.35-0.53-0.78-0.53-1.28s0.18-0.93,0.53-1.28c0.35-0.35,0.73-0.53,1.14-0.53c0.5,0,0.93,0.18,1.28,0.53
			c0.35,0.35,0.53,0.78,0.53,1.28H172.59z M175.1,67.38c-0.07-0.19-0.18-0.36-0.33-0.51c-0.27-0.27-0.59-0.4-0.96-0.4
			c-0.28,0-0.56,0.13-0.82,0.4c-0.15,0.15-0.26,0.32-0.33,0.51H175.1z"/>
		<path class="st0" d="M179.69,69.64h-0.45v-0.61c-0.02,0.03-0.05,0.05-0.08,0.08c-0.35,0.35-0.78,0.53-1.28,0.53
			s-0.93-0.18-1.28-0.53c-0.35-0.35-0.53-0.78-0.53-1.28s0.18-0.93,0.53-1.28c0.35-0.35,0.78-0.53,1.28-0.53s0.93,0.18,1.28,0.53
			c0.03,0.03,0.05,0.05,0.08,0.08v-2.42h0.45V69.64z M179.24,67.85v-0.03c0-0.37-0.14-0.68-0.4-0.95c-0.27-0.27-0.59-0.4-0.96-0.4
			c-0.37,0-0.69,0.13-0.96,0.4s-0.4,0.58-0.4,0.96c0,0.37,0.13,0.69,0.4,0.96s0.59,0.4,0.96,0.4c0.37,0,0.69-0.13,0.96-0.4
			C179.11,68.53,179.24,68.21,179.24,67.85z"/>
		<path class="st0" d="M184.97,67.18c-0.08,0-0.15-0.03-0.2-0.08c-0.05-0.05-0.08-0.12-0.08-0.2c0-0.08,0.03-0.15,0.08-0.2
			c0.05-0.06,0.12-0.08,0.2-0.08c0.08,0,0.15,0.03,0.2,0.08c0.06,0.06,0.08,0.12,0.08,0.2c0,0.08-0.03,0.14-0.08,0.2
			C185.12,67.16,185.05,67.18,184.97,67.18z"/>
	</g>
	<g>
		<path class="st0" d="M64.49,4.6v3.89h-0.71V0h3.36c1.53,0,2.3,0.77,2.3,2.3c0,1.53-0.77,2.3-2.3,2.3H64.49z M64.49,0.71v3.18h2.65
			c1.06,0,1.59-0.53,1.59-1.59c0-1.06-0.53-1.59-1.59-1.59H64.49z"/>
		<path class="st0" d="M70.19,0h0.71v8.49h-0.71V0z"/>
		<path class="st0" d="M72.3,5.66c0,0.58,0.21,1.08,0.62,1.5c0.41,0.41,0.91,0.62,1.5,0.62c0.58,0,1.08-0.21,1.5-0.62
			c0.13-0.13,0.24-0.27,0.33-0.42l0.69,0.23c-0.13,0.25-0.3,0.48-0.52,0.69c-0.55,0.55-1.22,0.83-2,0.83c-0.78,0-1.45-0.28-2-0.83
			s-0.83-1.22-0.83-2c0-0.78,0.28-1.45,0.83-2s1.15-0.83,1.79-0.83c0.78,0,1.45,0.28,2,0.83c0.55,0.55,0.83,1.22,0.83,2H72.3z
			 M76.21,4.95c-0.1-0.29-0.27-0.56-0.51-0.79c-0.41-0.41-0.91-0.62-1.5-0.62c-0.44,0-0.87,0.21-1.29,0.62
			c-0.24,0.24-0.41,0.5-0.51,0.79H76.21z"/>
		<path class="st0" d="M83.16,8.49h-0.71V7.53c-0.04,0.04-0.08,0.08-0.12,0.13c-0.55,0.55-1.22,0.83-2,0.83
			c-0.78,0-1.45-0.28-2-0.83s-0.83-1.22-0.83-2c0-0.78,0.28-1.45,0.83-2s1.22-0.83,2-0.83c0.78,0,1.45,0.28,2,0.83
			c0.04,0.04,0.08,0.09,0.12,0.13V2.83h0.71V8.49z M82.45,5.68V5.64c0-0.58-0.21-1.07-0.62-1.48c-0.42-0.41-0.92-0.62-1.5-0.62
			c-0.58,0-1.08,0.21-1.5,0.62c-0.41,0.41-0.62,0.91-0.62,1.5c0,0.58,0.21,1.08,0.62,1.5c0.41,0.41,0.91,0.62,1.5,0.62
			c0.58,0,1.08-0.21,1.5-0.62C82.24,6.75,82.45,6.25,82.45,5.68z"/>
		<path class="st0" d="M84.62,5.33c-0.32-0.17-0.54-0.44-0.64-0.79c-0.04-0.13-0.06-0.26-0.06-0.4c0-0.21,0.05-0.41,0.16-0.62
			c0.17-0.32,0.43-0.53,0.78-0.64c0.13-0.04,0.26-0.06,0.39-0.06c0.21,0,0.42,0.05,0.62,0.16c0.32,0.17,0.53,0.43,0.64,0.78
			l0.03,0.13l-0.68,0.23c0-0.05-0.01-0.1-0.02-0.16c-0.05-0.16-0.15-0.28-0.3-0.35c-0.1-0.06-0.2-0.08-0.3-0.08
			c-0.06,0-0.14,0.02-0.25,0.05c-0.11,0.04-0.21,0.13-0.29,0.28c-0.05,0.1-0.08,0.2-0.08,0.3c0,0.06,0.01,0.12,0.03,0.18
			c0.05,0.16,0.15,0.28,0.3,0.37l1.15,0.61c0.41,0.22,0.68,0.55,0.82,0.99c0.05,0.17,0.08,0.33,0.08,0.49c0,0.27-0.07,0.53-0.2,0.79
			c-0.22,0.41-0.55,0.68-1,0.82c-0.17,0.05-0.34,0.08-0.5,0.08c-0.26,0-0.52-0.07-0.77-0.2c-0.41-0.22-0.68-0.55-0.82-1
			c-0.03-0.11-0.06-0.21-0.07-0.32l0.7-0.16c0,0.09,0.02,0.18,0.05,0.28c0.08,0.26,0.24,0.45,0.47,0.57
			c0.14,0.08,0.29,0.12,0.44,0.12c0.1,0,0.24-0.03,0.42-0.08c0.18-0.06,0.33-0.2,0.46-0.44c0.08-0.14,0.11-0.29,0.11-0.45
			c0-0.09-0.03-0.23-0.08-0.41c-0.05-0.18-0.2-0.33-0.43-0.45L84.62,5.33z"/>
		<path class="st0" d="M88.09,5.66c0,0.58,0.21,1.08,0.62,1.5c0.41,0.41,0.91,0.62,1.5,0.62c0.58,0,1.08-0.21,1.5-0.62
			c0.13-0.13,0.24-0.27,0.33-0.42l0.69,0.23c-0.13,0.25-0.3,0.48-0.52,0.69c-0.55,0.55-1.22,0.83-2,0.83c-0.78,0-1.45-0.28-2-0.83
			s-0.83-1.22-0.83-2c0-0.78,0.28-1.45,0.83-2S89.36,2.83,90,2.83c0.78,0,1.45,0.28,2,0.83c0.55,0.55,0.83,1.22,0.83,2H88.09z
			 M92.01,4.95c-0.1-0.29-0.27-0.56-0.51-0.79c-0.41-0.41-0.91-0.62-1.5-0.62c-0.44,0-0.87,0.21-1.29,0.62
			c-0.24,0.24-0.41,0.5-0.51,0.79H92.01z"/>
		<path class="st0" d="M101.32,6.74L102,6.96c-0.13,0.25-0.3,0.48-0.52,0.69c-0.55,0.55-1.22,0.83-2,0.83c-0.78,0-1.45-0.28-2-0.83
			s-0.83-1.22-0.83-2c0-0.78,0.28-1.45,0.83-2s1.22-0.83,2-0.83c0.78,0,1.45,0.28,2,0.83c0.21,0.21,0.38,0.44,0.52,0.69l-0.69,0.23
			c-0.09-0.15-0.2-0.29-0.33-0.42c-0.42-0.41-0.92-0.62-1.5-0.62c-0.58,0-1.08,0.21-1.5,0.62c-0.41,0.41-0.62,0.91-0.62,1.5
			c0,0.58,0.21,1.08,0.62,1.5c0.41,0.41,0.91,0.62,1.5,0.62c0.58,0,1.08-0.21,1.5-0.62C101.12,7.02,101.23,6.89,101.32,6.74z"/>
		<path class="st0" d="M105.04,8.49c-0.78,0-1.45-0.28-2-0.83s-0.83-1.22-0.83-2c0-0.78,0.28-1.45,0.83-2s1.22-0.83,2-0.83
			c0.78,0,1.45,0.28,2,0.83s0.83,1.22,0.83,2c0,0.78-0.28,1.45-0.83,2S105.82,8.49,105.04,8.49z M105.04,7.78
			c0.58,0,1.08-0.21,1.5-0.62c0.41-0.41,0.62-0.91,0.62-1.5c0-0.58-0.21-1.08-0.62-1.5c-0.42-0.41-0.92-0.62-1.5-0.62
			c-0.58,0-1.08,0.21-1.5,0.62c-0.41,0.41-0.62,0.91-0.62,1.5c0,0.58,0.21,1.08,0.62,1.5C103.95,7.57,104.45,7.78,105.04,7.78z"/>
		<path class="st0" d="M112.78,3.55c0.48,0.48,0.73,1.07,0.73,1.75v3.18h-0.71V5.3c0-0.49-0.17-0.91-0.52-1.25
			c-0.34-0.34-0.76-0.52-1.25-0.52c-0.49,0-0.91,0.17-1.25,0.52c-0.34,0.34-0.52,0.76-0.52,1.25v3.18h-0.71V2.83h0.71v0.74
			l0.02-0.02c0.48-0.48,1.06-0.72,1.75-0.72C111.71,2.83,112.3,3.07,112.78,3.55z"/>
		<path class="st0" d="M114.97,5.33c-0.32-0.17-0.54-0.44-0.64-0.79c-0.04-0.13-0.06-0.26-0.06-0.4c0-0.21,0.05-0.41,0.16-0.62
			c0.17-0.32,0.43-0.53,0.78-0.64c0.13-0.04,0.26-0.06,0.39-0.06c0.21,0,0.42,0.05,0.62,0.16c0.32,0.17,0.53,0.43,0.64,0.78
			l0.03,0.13l-0.68,0.23c0-0.05-0.01-0.1-0.02-0.16c-0.05-0.16-0.15-0.28-0.3-0.35c-0.1-0.06-0.2-0.08-0.3-0.08
			c-0.06,0-0.14,0.02-0.25,0.05c-0.11,0.04-0.21,0.13-0.29,0.28c-0.05,0.1-0.08,0.2-0.08,0.3c0,0.06,0.01,0.12,0.03,0.18
			c0.05,0.16,0.15,0.28,0.3,0.37l1.15,0.61c0.41,0.22,0.68,0.55,0.82,0.99c0.05,0.17,0.08,0.33,0.08,0.49c0,0.27-0.07,0.53-0.2,0.79
			c-0.22,0.41-0.55,0.68-1,0.82c-0.17,0.05-0.34,0.08-0.5,0.08c-0.26,0-0.52-0.07-0.77-0.2c-0.41-0.22-0.68-0.55-0.82-1
			c-0.03-0.11-0.06-0.21-0.07-0.32l0.7-0.16c0,0.09,0.02,0.18,0.05,0.28c0.08,0.26,0.24,0.45,0.47,0.57
			c0.14,0.08,0.29,0.12,0.44,0.12c0.1,0,0.24-0.03,0.42-0.08c0.18-0.06,0.33-0.2,0.46-0.44c0.08-0.14,0.11-0.29,0.11-0.45
			c0-0.09-0.03-0.23-0.08-0.41c-0.05-0.18-0.2-0.33-0.43-0.45L114.97,5.33z"/>
		<path class="st0" d="M118.3,2.03c-0.12,0-0.23-0.04-0.31-0.13c-0.08-0.08-0.13-0.19-0.13-0.31s0.04-0.23,0.13-0.31
			s0.19-0.13,0.31-0.13c0.12,0,0.23,0.04,0.31,0.13s0.13,0.19,0.13,0.31s-0.04,0.23-0.13,0.31C118.53,1.99,118.43,2.03,118.3,2.03z
			 M117.95,2.83h0.71v5.66h-0.71V2.83z"/>
		<path class="st0" d="M125,8.49h-0.71V7.53c-0.04,0.04-0.08,0.08-0.12,0.13c-0.55,0.55-1.22,0.83-2,0.83c-0.78,0-1.45-0.28-2-0.83
			s-0.83-1.22-0.83-2c0-0.78,0.28-1.45,0.83-2s1.22-0.83,2-0.83c0.78,0,1.45,0.28,2,0.83c0.04,0.04,0.08,0.09,0.12,0.13V0H125V8.49z
			 M124.29,5.68V5.64c0-0.58-0.21-1.07-0.62-1.48c-0.42-0.41-0.92-0.62-1.5-0.62c-0.58,0-1.08,0.21-1.5,0.62
			c-0.41,0.41-0.62,0.91-0.62,1.5c0,0.58,0.21,1.08,0.62,1.5c0.41,0.41,0.91,0.62,1.5,0.62c0.58,0,1.08-0.21,1.5-0.62
			C124.08,6.75,124.29,6.25,124.29,5.68z"/>
		<path class="st0" d="M126.4,5.66c0,0.58,0.21,1.08,0.62,1.5c0.41,0.41,0.91,0.62,1.5,0.62c0.58,0,1.08-0.21,1.5-0.62
			c0.13-0.13,0.24-0.27,0.33-0.42l0.69,0.23c-0.13,0.25-0.3,0.48-0.52,0.69c-0.55,0.55-1.22,0.83-2,0.83c-0.78,0-1.45-0.28-2-0.83
			s-0.83-1.22-0.83-2c0-0.78,0.28-1.45,0.83-2s1.15-0.83,1.79-0.83c0.78,0,1.45,0.28,2,0.83c0.55,0.55,0.83,1.22,0.83,2H126.4z
			 M130.32,4.95c-0.1-0.29-0.27-0.56-0.51-0.79c-0.41-0.41-0.91-0.62-1.5-0.62c-0.44,0-0.87,0.21-1.29,0.62
			c-0.24,0.24-0.41,0.5-0.51,0.79H130.32z"/>
		<path class="st0" d="M132.46,5.3v3.19h-0.71V2.83h0.71v0.74l0.02-0.02c0.4-0.4,0.86-0.63,1.39-0.7c0.11-0.01,0.23-0.02,0.35-0.02
			c0.28,0,0.54,0.04,0.78,0.12l-0.23,0.67c-0.17-0.06-0.36-0.08-0.56-0.08c-0.12,0-0.24,0.01-0.35,0.04
			c-0.34,0.06-0.64,0.22-0.9,0.48C132.63,4.4,132.46,4.81,132.46,5.3z"/>
		<path class="st0" d="M144.43,8.49h-0.71V7.53c-0.04,0.04-0.08,0.08-0.12,0.13c-0.55,0.55-1.22,0.83-2,0.83s-1.45-0.28-2-0.83
			s-0.83-1.22-0.83-2c0-0.78,0.28-1.45,0.83-2s1.22-0.83,2-0.83s1.45,0.28,2,0.83c0.04,0.04,0.08,0.09,0.12,0.13V0h0.71V8.49z
			 M143.72,5.68V5.64c0-0.58-0.21-1.07-0.62-1.48c-0.41-0.41-0.91-0.62-1.5-0.62c-0.58,0-1.08,0.21-1.5,0.62
			c-0.41,0.41-0.62,0.91-0.62,1.5c0,0.58,0.21,1.08,0.62,1.5c0.41,0.41,0.91,0.62,1.5,0.62c0.58,0,1.08-0.21,1.5-0.62
			C143.51,6.75,143.71,6.25,143.72,5.68z"/>
		<path class="st0" d="M147.95,8.49c-0.78,0-1.45-0.28-2-0.83c-0.55-0.55-0.83-1.22-0.83-2c0-0.78,0.28-1.45,0.83-2
			c0.55-0.55,1.22-0.83,2-0.83c0.78,0,1.45,0.28,2,0.83c0.55,0.55,0.83,1.22,0.83,2c0,0.78-0.28,1.45-0.83,2
			C149.4,8.21,148.73,8.49,147.95,8.49z M147.95,7.78c0.58,0,1.08-0.21,1.5-0.62c0.41-0.41,0.62-0.91,0.62-1.5
			c0-0.58-0.21-1.08-0.62-1.5c-0.41-0.41-0.91-0.62-1.5-0.62c-0.58,0-1.08,0.21-1.5,0.62c-0.41,0.41-0.62,0.91-0.62,1.5
			c0,0.58,0.21,1.08,0.62,1.5C146.86,7.57,147.36,7.78,147.95,7.78z"/>
		<path class="st0" d="M155.69,3.55c0.48,0.48,0.72,1.07,0.72,1.75v3.18h-0.71V5.3c0-0.49-0.17-0.91-0.52-1.25
			c-0.34-0.34-0.76-0.52-1.25-0.52c-0.49,0-0.91,0.17-1.25,0.52c-0.34,0.34-0.52,0.76-0.52,1.25v3.18h-0.71V2.83h0.71v0.74
			l0.02-0.02c0.48-0.48,1.06-0.72,1.75-0.72C154.62,2.83,155.21,3.07,155.69,3.55z"/>
		<path class="st0" d="M162.75,8.49h-0.71V7.53c-0.04,0.04-0.08,0.08-0.12,0.13c-0.55,0.55-1.22,0.83-2,0.83s-1.45-0.28-2-0.83
			c-0.55-0.55-0.83-1.22-0.83-2c0-0.78,0.28-1.45,0.83-2c0.55-0.55,1.22-0.83,2-0.83s1.45,0.28,2,0.83
			c0.04,0.04,0.08,0.09,0.12,0.13V2.83h0.71V8.49z M162.04,5.68V5.64c0-0.58-0.21-1.07-0.62-1.48c-0.41-0.41-0.91-0.62-1.5-0.62
			c-0.58,0-1.08,0.21-1.5,0.62c-0.41,0.41-0.62,0.91-0.62,1.5c0,0.58,0.21,1.08,0.62,1.5c0.41,0.41,0.91,0.62,1.5,0.62
			c0.58,0,1.08-0.21,1.5-0.62C161.83,6.75,162.04,6.25,162.04,5.68z"/>
		<path class="st0" d="M164.64,2.83V0h0.71v2.83h1.41v0.71h-1.41v4.95h-0.71V3.54h-1.41V2.83H164.64z"/>
		<path class="st0" d="M167.59,2.03c-0.12,0-0.23-0.04-0.31-0.13c-0.08-0.08-0.13-0.19-0.13-0.31s0.04-0.23,0.13-0.31
			c0.08-0.09,0.19-0.13,0.31-0.13c0.12,0,0.23,0.04,0.32,0.13c0.09,0.09,0.13,0.19,0.13,0.31s-0.04,0.23-0.13,0.31
			C167.82,1.99,167.71,2.03,167.59,2.03z M167.24,2.83h0.71v5.66h-0.71V2.83z"/>
		<path class="st0" d="M173.18,3.55c0.48,0.48,0.72,1.07,0.72,1.75v3.18h-0.71V5.3c0-0.49-0.17-0.91-0.52-1.25
			c-0.34-0.34-0.76-0.52-1.25-0.52c-0.49,0-0.91,0.17-1.25,0.52c-0.34,0.34-0.52,0.76-0.52,1.25v3.18h-0.71V2.83h0.71v0.74
			l0.02-0.02c0.48-0.48,1.06-0.72,1.75-0.72C172.11,2.83,172.69,3.07,173.18,3.55z"/>
		<path class="st0" d="M179.53,3.78V2.83h0.71v4.95c0,0.78-0.28,1.45-0.83,2c-0.55,0.55-1.22,0.83-2,0.83s-1.45-0.28-2-0.83
			c-0.18-0.18-0.34-0.38-0.46-0.59h0.88c0.02,0.03,0.05,0.06,0.08,0.08c0.41,0.41,0.91,0.62,1.5,0.62s1.08-0.21,1.5-0.62
			s0.62-0.91,0.62-1.5V7.53c-0.04,0.04-0.08,0.08-0.12,0.13c-0.55,0.55-1.22,0.83-2,0.83s-1.45-0.28-2-0.83
			c-0.55-0.55-0.83-1.22-0.83-2c0-0.78,0.28-1.45,0.83-2c0.55-0.55,1.22-0.83,2-0.83s1.45,0.28,2,0.83
			C179.45,3.7,179.49,3.74,179.53,3.78z M179.53,5.68V5.64c0-0.58-0.21-1.07-0.62-1.48c-0.41-0.41-0.91-0.62-1.5-0.62
			s-1.08,0.21-1.5,0.62c-0.41,0.41-0.62,0.91-0.62,1.5c0,0.58,0.21,1.08,0.62,1.5c0.41,0.41,0.91,0.62,1.5,0.62s1.08-0.21,1.5-0.62
			C179.32,6.75,179.53,6.25,179.53,5.68z"/>
		<path class="st0" d="M180.35,9.9l0.71-2.12h0.85l-0.85,2.12H180.35z"/>
		<path class="st0" d="M2.46,21.46L0,16.55h0.74l2.09,4.17l2.09-4.17h0.74l-3.89,7.78H1.03L2.46,21.46z"/>
		<path class="st0" d="M8.23,22.21c-0.78,0-1.45-0.28-2-0.83s-0.83-1.22-0.83-2c0-0.78,0.28-1.45,0.83-2c0.55-0.55,1.22-0.83,2-0.83
			c0.78,0,1.45,0.28,2,0.83c0.55,0.55,0.83,1.22,0.83,2c0,0.78-0.28,1.45-0.83,2S9.01,22.21,8.23,22.21z M8.23,21.5
			c0.58,0,1.08-0.21,1.5-0.62c0.41-0.41,0.62-0.91,0.62-1.5c0-0.58-0.21-1.08-0.62-1.5c-0.42-0.41-0.92-0.62-1.5-0.62
			c-0.58,0-1.08,0.21-1.5,0.62c-0.41,0.41-0.62,0.91-0.62,1.5c0,0.58,0.21,1.08,0.62,1.5C7.14,21.29,7.64,21.5,8.23,21.5z"/>
		<path class="st0" d="M12.44,21.48c-0.48-0.48-0.72-1.07-0.72-1.75v-3.18h0.71v3.18c0,0.49,0.17,0.91,0.52,1.25
			c0.34,0.34,0.76,0.52,1.25,0.52c0.49,0,0.91-0.17,1.25-0.52c0.34-0.34,0.52-0.76,0.52-1.25v-3.18h0.71v3.18
			c0,0.68-0.24,1.27-0.73,1.75c-0.48,0.48-1.07,0.72-1.75,0.72C13.5,22.21,12.92,21.96,12.44,21.48z"/>
		<path class="st0" d="M18.26,19.02v3.19h-0.71v-5.66h0.71v0.74l0.02-0.02c0.4-0.4,0.86-0.63,1.39-0.7
			c0.11-0.01,0.23-0.02,0.35-0.02c0.28,0,0.54,0.04,0.79,0.12l-0.23,0.67c-0.17-0.06-0.36-0.08-0.56-0.08
			c-0.12,0-0.24,0.01-0.35,0.04c-0.34,0.06-0.64,0.22-0.9,0.48C18.43,18.12,18.26,18.53,18.26,19.02z"/>
		<path class="st0" d="M29.52,17.5v-0.95h0.71v4.95c0,0.78-0.28,1.45-0.83,2c-0.55,0.55-1.22,0.83-2,0.83c-0.78,0-1.45-0.28-2-0.83
			c-0.18-0.18-0.34-0.38-0.46-0.59h0.88c0.02,0.03,0.05,0.06,0.08,0.08c0.41,0.41,0.91,0.62,1.5,0.62c0.58,0,1.08-0.21,1.5-0.62
			c0.41-0.41,0.62-0.91,0.62-1.5v-0.25c-0.04,0.04-0.08,0.08-0.12,0.13c-0.55,0.55-1.22,0.83-2,0.83c-0.78,0-1.45-0.28-2-0.83
			s-0.83-1.22-0.83-2c0-0.78,0.28-1.45,0.83-2c0.55-0.55,1.22-0.83,2-0.83c0.78,0,1.45,0.28,2,0.83
			C29.45,17.42,29.49,17.46,29.52,17.5z M29.52,19.4v-0.04c0-0.58-0.21-1.07-0.62-1.48c-0.42-0.41-0.92-0.62-1.5-0.62
			c-0.58,0-1.08,0.21-1.5,0.62c-0.41,0.41-0.62,0.91-0.62,1.5c0,0.58,0.21,1.08,0.62,1.5c0.41,0.41,0.91,0.62,1.5,0.62
			c0.58,0,1.08-0.21,1.5-0.62C29.31,20.47,29.52,19.97,29.52,19.4z"/>
		<path class="st0" d="M31.63,19.38c0,0.58,0.21,1.08,0.62,1.5c0.41,0.41,0.91,0.62,1.5,0.62c0.58,0,1.08-0.21,1.5-0.62
			c0.13-0.13,0.24-0.27,0.33-0.42l0.69,0.23c-0.13,0.25-0.3,0.48-0.52,0.69c-0.55,0.55-1.22,0.83-2,0.83c-0.78,0-1.45-0.28-2-0.83
			c-0.55-0.55-0.83-1.22-0.83-2c0-0.78,0.28-1.45,0.83-2c0.55-0.55,1.15-0.83,1.79-0.83c0.78,0,1.45,0.28,2,0.83
			c0.55,0.55,0.83,1.22,0.83,2H31.63z M35.55,18.67c-0.1-0.29-0.27-0.56-0.51-0.79c-0.41-0.41-0.91-0.62-1.5-0.62
			c-0.44,0-0.87,0.21-1.29,0.62c-0.24,0.24-0.41,0.5-0.51,0.79H35.55z"/>
		<path class="st0" d="M41.2,17.27c0.48,0.48,0.73,1.07,0.73,1.75v3.18h-0.71v-3.18c0-0.49-0.17-0.91-0.52-1.25
			c-0.34-0.34-0.76-0.52-1.25-0.52c-0.49,0-0.91,0.17-1.25,0.52c-0.34,0.34-0.52,0.76-0.52,1.25v3.18h-0.71v-5.66h0.71v0.74
			l0.02-0.02c0.48-0.48,1.06-0.72,1.75-0.72C40.14,16.55,40.72,16.79,41.2,17.27z"/>
		<path class="st0" d="M43.32,19.38c0,0.58,0.21,1.08,0.62,1.5c0.41,0.41,0.91,0.62,1.5,0.62c0.58,0,1.08-0.21,1.5-0.62
			c0.13-0.13,0.24-0.27,0.33-0.42l0.69,0.23c-0.13,0.25-0.3,0.48-0.52,0.69c-0.55,0.55-1.22,0.83-2,0.83c-0.78,0-1.45-0.28-2-0.83
			s-0.83-1.22-0.83-2c0-0.78,0.28-1.45,0.83-2c0.55-0.55,1.15-0.83,1.79-0.83c0.78,0,1.45,0.28,2,0.83c0.55,0.55,0.83,1.22,0.83,2
			H43.32z M47.23,18.67c-0.1-0.29-0.27-0.56-0.51-0.79c-0.41-0.41-0.91-0.62-1.5-0.62c-0.44,0-0.87,0.21-1.29,0.62
			c-0.24,0.24-0.41,0.5-0.51,0.79H47.23z"/>
		<path class="st0" d="M49.37,19.02v3.19h-0.71v-5.66h0.71v0.74l0.02-0.02c0.4-0.4,0.86-0.63,1.39-0.7
			c0.11-0.01,0.23-0.02,0.35-0.02c0.28,0,0.54,0.04,0.79,0.12l-0.23,0.67c-0.17-0.06-0.36-0.08-0.56-0.08
			c-0.12,0-0.24,0.01-0.35,0.04c-0.34,0.06-0.64,0.22-0.9,0.48C49.54,18.12,49.37,18.53,49.37,19.02z"/>
		<path class="st0" d="M54.15,22.21c-0.78,0-1.45-0.28-2-0.83s-0.83-1.22-0.83-2c0-0.78,0.28-1.45,0.83-2
			c0.55-0.55,1.22-0.83,2-0.83c0.78,0,1.45,0.28,2,0.83c0.55,0.55,0.83,1.22,0.83,2c0,0.78-0.28,1.45-0.83,2
			S54.94,22.21,54.15,22.21z M54.15,21.5c0.58,0,1.08-0.21,1.5-0.62c0.41-0.41,0.62-0.91,0.62-1.5c0-0.58-0.21-1.08-0.62-1.5
			c-0.42-0.41-0.92-0.62-1.5-0.62c-0.58,0-1.08,0.21-1.5,0.62c-0.41,0.41-0.62,0.91-0.62,1.5c0,0.58,0.21,1.08,0.62,1.5
			C53.07,21.29,53.57,21.5,54.15,21.5z"/>
		<path class="st0" d="M58.37,21.48c-0.48-0.48-0.72-1.07-0.72-1.75v-3.18h0.71v3.18c0,0.49,0.17,0.91,0.52,1.25
			c0.34,0.34,0.76,0.52,1.25,0.52c0.49,0,0.91-0.17,1.25-0.52c0.34-0.34,0.52-0.76,0.52-1.25v-3.18h0.71v3.18
			c0,0.68-0.24,1.27-0.73,1.75c-0.48,0.48-1.07,0.72-1.75,0.72C59.43,22.21,58.85,21.96,58.37,21.48z"/>
		<path class="st0" d="M64.06,19.05c-0.32-0.17-0.54-0.44-0.64-0.79c-0.04-0.13-0.06-0.26-0.06-0.4c0-0.21,0.05-0.41,0.16-0.62
			c0.17-0.32,0.43-0.53,0.78-0.64c0.13-0.04,0.26-0.06,0.39-0.06c0.21,0,0.42,0.05,0.62,0.16c0.32,0.17,0.53,0.43,0.64,0.78
			l0.03,0.13l-0.68,0.23c0-0.05-0.01-0.1-0.02-0.16c-0.05-0.16-0.15-0.28-0.3-0.35c-0.1-0.06-0.2-0.08-0.3-0.08
			c-0.06,0-0.14,0.02-0.25,0.05c-0.11,0.04-0.21,0.13-0.29,0.28c-0.05,0.1-0.08,0.2-0.08,0.3c0,0.06,0.01,0.12,0.03,0.18
			c0.05,0.16,0.15,0.28,0.3,0.37l1.15,0.61c0.41,0.22,0.68,0.55,0.82,0.99c0.05,0.17,0.08,0.33,0.08,0.49c0,0.27-0.07,0.53-0.2,0.79
			c-0.22,0.41-0.55,0.68-1,0.82c-0.17,0.05-0.34,0.08-0.5,0.08c-0.26,0-0.52-0.07-0.77-0.2c-0.41-0.22-0.68-0.55-0.82-1
			c-0.03-0.11-0.06-0.21-0.07-0.32l0.7-0.16c0,0.09,0.02,0.18,0.05,0.28c0.08,0.26,0.24,0.45,0.47,0.57
			c0.14,0.08,0.29,0.12,0.44,0.12c0.1,0,0.24-0.03,0.42-0.08c0.18-0.06,0.33-0.2,0.46-0.44c0.08-0.14,0.11-0.29,0.11-0.45
			c0-0.09-0.03-0.23-0.08-0.41c-0.05-0.18-0.2-0.33-0.43-0.45L64.06,19.05z"/>
		<path class="st0" d="M74.75,20.46l0.69,0.23c-0.13,0.25-0.3,0.48-0.52,0.69c-0.55,0.55-1.22,0.83-2,0.83c-0.78,0-1.45-0.28-2-0.83
			s-0.83-1.22-0.83-2c0-0.78,0.28-1.45,0.83-2c0.55-0.55,1.22-0.83,2-0.83c0.78,0,1.45,0.28,2,0.83c0.21,0.21,0.38,0.44,0.52,0.69
			l-0.69,0.23c-0.09-0.15-0.2-0.29-0.33-0.42c-0.42-0.41-0.92-0.62-1.5-0.62c-0.58,0-1.08,0.21-1.5,0.62
			c-0.41,0.41-0.62,0.91-0.62,1.5c0,0.58,0.21,1.08,0.62,1.5c0.41,0.41,0.91,0.62,1.5,0.62c0.58,0,1.08-0.21,1.5-0.62
			C74.55,20.74,74.66,20.6,74.75,20.46z"/>
		<path class="st0" d="M78.47,22.21c-0.78,0-1.45-0.28-2-0.83s-0.83-1.22-0.83-2c0-0.78,0.28-1.45,0.83-2
			c0.55-0.55,1.22-0.83,2-0.83c0.78,0,1.45,0.28,2,0.83c0.55,0.55,0.83,1.22,0.83,2c0,0.78-0.28,1.45-0.83,2
			S79.26,22.21,78.47,22.21z M78.47,21.5c0.58,0,1.08-0.21,1.5-0.62c0.41-0.41,0.62-0.91,0.62-1.5c0-0.58-0.21-1.08-0.62-1.5
			c-0.42-0.41-0.92-0.62-1.5-0.62c-0.58,0-1.08,0.21-1.5,0.62c-0.41,0.41-0.62,0.91-0.62,1.5c0,0.58,0.21,1.08,0.62,1.5
			C77.39,21.29,77.89,21.5,78.47,21.5z"/>
		<path class="st0" d="M86.21,17.27c0.48,0.48,0.73,1.07,0.73,1.75v3.18h-0.71v-3.18c0-0.49-0.17-0.91-0.52-1.25
			c-0.34-0.34-0.76-0.52-1.25-0.52c-0.49,0-0.91,0.17-1.25,0.52c-0.34,0.34-0.52,0.76-0.52,1.25v3.18h-0.71v-5.66h0.71v0.74
			l0.02-0.02c0.48-0.48,1.06-0.72,1.75-0.72C85.15,16.55,85.73,16.79,86.21,17.27z"/>
		<path class="st0" d="M88.21,16.55v-2.83h0.71v2.83h1.41v0.71h-1.41v4.95h-0.71v-4.95H86.8v-0.71H88.21z"/>
		<path class="st0" d="M91.52,19.02v3.19h-0.71v-5.66h0.71v0.74l0.02-0.02c0.4-0.4,0.86-0.63,1.39-0.7
			c0.11-0.01,0.23-0.02,0.35-0.02c0.28,0,0.54,0.04,0.79,0.12l-0.23,0.67c-0.17-0.06-0.36-0.08-0.56-0.08
			c-0.12,0-0.24,0.01-0.35,0.04c-0.34,0.06-0.64,0.22-0.9,0.48C91.69,18.12,91.52,18.53,91.52,19.02z"/>
		<path class="st0" d="M94.75,15.75c-0.12,0-0.23-0.04-0.31-0.13s-0.13-0.19-0.13-0.31s0.04-0.23,0.13-0.31
			c0.08-0.09,0.19-0.13,0.31-0.13c0.12,0,0.23,0.04,0.31,0.13c0.09,0.09,0.13,0.19,0.13,0.31s-0.04,0.23-0.13,0.31
			S94.87,15.75,94.75,15.75z M94.4,16.55h0.71v5.66H94.4V16.55z"/>
		<path class="st0" d="M96.31,13.72h0.71v3.78c0.04-0.04,0.08-0.08,0.12-0.13c0.55-0.55,1.22-0.83,2-0.83c0.78,0,1.45,0.28,2,0.83
			c0.55,0.55,0.83,1.22,0.83,2c0,0.78-0.28,1.45-0.83,2s-1.22,0.83-2,0.83c-0.78,0-1.45-0.28-2-0.83c-0.04-0.04-0.08-0.08-0.12-0.13
			v0.95h-0.71V13.72z M97.01,19.36v0.04c0,0.58,0.21,1.07,0.62,1.48c0.41,0.41,0.91,0.62,1.5,0.62c0.58,0,1.08-0.21,1.5-0.62
			c0.41-0.41,0.62-0.91,0.62-1.5c0-0.58-0.21-1.08-0.62-1.5c-0.42-0.41-0.92-0.62-1.5-0.62c-0.58,0-1.08,0.21-1.5,0.62
			C97.23,18.29,97.02,18.78,97.01,19.36z"/>
		<path class="st0" d="M103.35,21.48c-0.48-0.48-0.72-1.07-0.72-1.75v-3.18h0.71v3.18c0,0.49,0.17,0.91,0.52,1.25
			c0.34,0.34,0.76,0.52,1.25,0.52c0.49,0,0.91-0.17,1.25-0.52c0.34-0.34,0.52-0.76,0.52-1.25v-3.18h0.71v3.18
			c0,0.68-0.24,1.27-0.73,1.75c-0.48,0.48-1.07,0.72-1.75,0.72C104.41,22.21,103.83,21.96,103.35,21.48z"/>
		<path class="st0" d="M109.46,16.55v-2.83h0.71v2.83h1.41v0.71h-1.41v4.95h-0.71v-4.95h-1.41v-0.71H109.46z"/>
		<path class="st0" d="M112.41,15.75c-0.12,0-0.23-0.04-0.31-0.13c-0.08-0.08-0.13-0.19-0.13-0.31s0.04-0.23,0.13-0.31
			c0.08-0.09,0.19-0.13,0.31-0.13c0.12,0,0.23,0.04,0.31,0.13c0.09,0.09,0.13,0.19,0.13,0.31s-0.04,0.23-0.13,0.31
			C112.64,15.71,112.54,15.75,112.41,15.75z M112.06,16.55h0.71v5.66h-0.71V16.55z"/>
		<path class="st0" d="M116.28,22.21c-0.78,0-1.45-0.28-2-0.83s-0.83-1.22-0.83-2c0-0.78,0.28-1.45,0.83-2
			c0.55-0.55,1.22-0.83,2-0.83c0.78,0,1.45,0.28,2,0.83c0.55,0.55,0.83,1.22,0.83,2c0,0.78-0.28,1.45-0.83,2
			S117.07,22.21,116.28,22.21z M116.28,21.5c0.58,0,1.08-0.21,1.5-0.62c0.41-0.41,0.62-0.91,0.62-1.5c0-0.58-0.21-1.08-0.62-1.5
			c-0.42-0.41-0.92-0.62-1.5-0.62c-0.58,0-1.08,0.21-1.5,0.62c-0.41,0.41-0.62,0.91-0.62,1.5c0,0.58,0.21,1.08,0.62,1.5
			C115.2,21.29,115.7,21.5,116.28,21.5z"/>
		<path class="st0" d="M124.02,17.27c0.48,0.48,0.73,1.07,0.73,1.75v3.18h-0.71v-3.18c0-0.49-0.17-0.91-0.52-1.25
			c-0.34-0.34-0.76-0.52-1.25-0.52c-0.49,0-0.91,0.17-1.25,0.52c-0.34,0.34-0.52,0.76-0.52,1.25v3.18h-0.71v-5.66h0.71v0.74
			l0.02-0.02c0.48-0.48,1.06-0.72,1.75-0.72C122.96,16.55,123.54,16.79,124.02,17.27z"/>
		<path class="st0" d="M134.52,20.51l1.73-3.96H137l-2.1,4.81l-0.37,0.85l-0.37-0.85l-1.36-3.11l-1.36,3.11l-0.37,0.85l-0.37-0.85
			l-2.11-4.81h0.74l1.73,3.96l1.36-3.11l0.37-0.85l0.37,0.85L134.52,20.51z"/>
		<path class="st0" d="M137.62,15.75c-0.12,0-0.23-0.04-0.31-0.13c-0.08-0.08-0.13-0.19-0.13-0.31s0.04-0.23,0.13-0.31
			c0.08-0.09,0.19-0.13,0.31-0.13c0.12,0,0.23,0.04,0.32,0.13c0.09,0.09,0.13,0.19,0.13,0.31s-0.04,0.23-0.13,0.31
			C137.85,15.71,137.75,15.75,137.62,15.75z M137.27,16.55h0.71v5.66h-0.71V16.55z"/>
		<path class="st0" d="M139.18,13.72h0.71v8.49h-0.71V13.72z"/>
		<path class="st0" d="M141.06,13.72h0.71v8.49h-0.71V13.72z"/>
		<path class="st0" d="M149.83,17.27c0.48,0.48,0.72,1.07,0.72,1.75v3.18h-0.71v-3.18c0-0.49-0.17-0.91-0.52-1.25
			c-0.34-0.34-0.76-0.52-1.25-0.52c-0.49,0-0.91,0.17-1.25,0.52c-0.34,0.34-0.52,0.76-0.52,1.25v3.18h-0.71v-8.49h0.71v3.57
			l0.02-0.02c0.48-0.48,1.06-0.72,1.75-0.72C148.76,16.55,149.35,16.79,149.83,17.27z"/>
		<path class="st0" d="M151.94,19.38c0,0.58,0.21,1.08,0.62,1.5c0.41,0.41,0.91,0.62,1.5,0.62c0.58,0,1.08-0.21,1.5-0.62
			c0.13-0.13,0.24-0.27,0.33-0.42l0.69,0.23c-0.13,0.25-0.3,0.48-0.52,0.69c-0.55,0.55-1.22,0.83-2,0.83c-0.78,0-1.45-0.28-2-0.83
			c-0.55-0.55-0.83-1.22-0.83-2c0-0.78,0.28-1.45,0.83-2c0.55-0.55,1.15-0.83,1.79-0.83c0.78,0,1.45,0.28,2,0.83
			c0.55,0.55,0.83,1.22,0.83,2H151.94z M155.86,18.67c-0.1-0.29-0.27-0.56-0.51-0.79c-0.41-0.41-0.91-0.62-1.5-0.62
			c-0.44,0-0.87,0.21-1.29,0.62c-0.24,0.24-0.41,0.5-0.51,0.79H155.86z"/>
		<path class="st0" d="M157.31,13.72h0.71v8.49h-0.71V13.72z"/>
		<path class="st0" d="M159.4,16.55h0.71v0.95c0.04-0.04,0.08-0.08,0.12-0.13c0.55-0.55,1.22-0.83,2-0.83c0.78,0,1.45,0.28,2,0.83
			c0.55,0.55,0.83,1.22,0.83,2c0,0.78-0.28,1.45-0.83,2c-0.55,0.55-1.22,0.83-2,0.83c-0.78,0-1.45-0.28-2-0.83
			c-0.04-0.04-0.08-0.08-0.12-0.13v3.08h-0.71V16.55z M160.11,19.36v0.04c0,0.58,0.21,1.07,0.62,1.48c0.41,0.41,0.91,0.62,1.5,0.62
			c0.58,0,1.08-0.21,1.5-0.62c0.41-0.41,0.62-0.91,0.62-1.5c0-0.58-0.21-1.08-0.62-1.5c-0.41-0.41-0.91-0.62-1.5-0.62
			c-0.58,0-1.08,0.21-1.5,0.62C160.32,18.29,160.11,18.78,160.11,19.36z"/>
		<path class="st0" d="M174.83,20.51l1.73-3.96h0.74l-2.1,4.81l-0.37,0.85l-0.37-0.85l-1.36-3.11l-1.36,3.11l-0.37,0.85L171,21.36
			l-2.11-4.81h0.74l1.73,3.96l1.36-3.11l0.37-0.85l0.37,0.85L174.83,20.51z"/>
		<path class="st0" d="M177.93,15.75c-0.12,0-0.23-0.04-0.31-0.13c-0.08-0.08-0.13-0.19-0.13-0.31s0.04-0.23,0.13-0.31
			c0.08-0.09,0.19-0.13,0.31-0.13c0.12,0,0.23,0.04,0.32,0.13c0.09,0.09,0.13,0.19,0.13,0.31s-0.04,0.23-0.13,0.31
			C178.16,15.71,178.05,15.75,177.93,15.75z M177.58,16.55h0.71v5.66h-0.71V16.55z"/>
		<path class="st0" d="M180.09,16.55v-2.83h0.71v2.83h1.41v0.71h-1.41v4.95h-0.71v-4.95h-1.41v-0.71H180.09z"/>
		<path class="st0" d="M186.91,17.27c0.48,0.48,0.72,1.07,0.72,1.75v3.18h-0.71v-3.18c0-0.49-0.17-0.91-0.52-1.25
			c-0.34-0.34-0.76-0.52-1.25-0.52c-0.49,0-0.91,0.17-1.25,0.52c-0.34,0.34-0.52,0.76-0.52,1.25v3.18h-0.71v-8.49h0.71v3.57
			l0.02-0.02c0.48-0.48,1.06-0.72,1.75-0.72C185.85,16.55,186.43,16.79,186.91,17.27z"/>
		<path class="st0" d="M192.46,19.05c-0.32-0.17-0.53-0.44-0.64-0.79c-0.04-0.13-0.06-0.26-0.06-0.4c0-0.21,0.05-0.41,0.16-0.62
			c0.17-0.32,0.43-0.53,0.79-0.64c0.13-0.04,0.26-0.06,0.39-0.06c0.21,0,0.42,0.05,0.62,0.16c0.32,0.17,0.53,0.43,0.64,0.78
			l0.03,0.13l-0.68,0.23c0-0.05-0.01-0.1-0.02-0.16c-0.05-0.16-0.15-0.28-0.3-0.35c-0.1-0.06-0.2-0.08-0.3-0.08
			c-0.06,0-0.14,0.02-0.25,0.05c-0.11,0.04-0.21,0.13-0.29,0.28c-0.05,0.1-0.08,0.2-0.08,0.3c0,0.06,0.01,0.12,0.03,0.18
			c0.05,0.16,0.15,0.28,0.3,0.37l1.15,0.61c0.41,0.22,0.68,0.55,0.82,0.99c0.05,0.17,0.08,0.33,0.08,0.49c0,0.27-0.07,0.53-0.2,0.79
			c-0.22,0.41-0.55,0.68-1,0.82c-0.17,0.05-0.34,0.08-0.5,0.08c-0.26,0-0.52-0.07-0.77-0.2c-0.41-0.22-0.68-0.55-0.82-1
			c-0.03-0.11-0.06-0.21-0.07-0.32l0.7-0.16c0,0.09,0.02,0.18,0.05,0.28c0.08,0.26,0.24,0.45,0.47,0.57
			c0.14,0.08,0.29,0.12,0.44,0.12c0.1,0,0.24-0.03,0.42-0.08c0.18-0.06,0.33-0.2,0.46-0.44c0.08-0.14,0.11-0.29,0.11-0.45
			c0-0.09-0.03-0.23-0.08-0.41c-0.05-0.18-0.2-0.33-0.44-0.45L192.46,19.05z"/>
		<path class="st0" d="M195.93,19.38c0,0.58,0.21,1.08,0.62,1.5c0.41,0.41,0.91,0.62,1.5,0.62c0.58,0,1.08-0.21,1.5-0.62
			c0.13-0.13,0.24-0.27,0.33-0.42l0.69,0.23c-0.13,0.25-0.3,0.48-0.52,0.69c-0.55,0.55-1.22,0.83-2,0.83s-1.45-0.28-2-0.83
			c-0.55-0.55-0.83-1.22-0.83-2c0-0.78,0.28-1.45,0.83-2c0.55-0.55,1.15-0.83,1.79-0.83c0.78,0,1.45,0.28,2,0.83
			c0.55,0.55,0.83,1.22,0.83,2H195.93z M199.85,18.67c-0.1-0.29-0.27-0.56-0.51-0.79c-0.41-0.41-0.91-0.62-1.5-0.62
			c-0.44,0-0.87,0.21-1.29,0.62c-0.24,0.24-0.41,0.5-0.51,0.79H199.85z"/>
		<path class="st0" d="M201.98,19.02v3.19h-0.71v-5.66h0.71v0.74l0.02-0.02c0.4-0.4,0.86-0.63,1.39-0.7
			c0.11-0.01,0.23-0.02,0.35-0.02c0.28,0,0.54,0.04,0.78,0.12l-0.23,0.67c-0.17-0.06-0.36-0.08-0.56-0.08
			c-0.12,0-0.24,0.01-0.35,0.04c-0.34,0.06-0.64,0.22-0.9,0.48C202.16,18.12,201.98,18.53,201.98,19.02z"/>
		<path class="st0" d="M207.2,21.46l-2.46-4.91h0.74l2.09,4.17l2.09-4.17h0.74l-2.45,4.91l-0.37,0.74L207.2,21.46z"/>
		<path class="st0" d="M210.84,19.38c0,0.58,0.21,1.08,0.62,1.5c0.41,0.41,0.91,0.62,1.5,0.62c0.58,0,1.08-0.21,1.5-0.62
			c0.13-0.13,0.24-0.27,0.33-0.42l0.69,0.23c-0.13,0.25-0.3,0.48-0.52,0.69c-0.55,0.55-1.22,0.83-2,0.83c-0.78,0-1.45-0.28-2-0.83
			c-0.55-0.55-0.83-1.22-0.83-2c0-0.78,0.28-1.45,0.83-2c0.55-0.55,1.15-0.83,1.79-0.83c0.78,0,1.45,0.28,2,0.83
			c0.55,0.55,0.83,1.22,0.83,2H210.84z M214.76,18.67c-0.1-0.29-0.27-0.56-0.51-0.79c-0.41-0.41-0.91-0.62-1.5-0.62
			c-0.44,0-0.87,0.21-1.29,0.62c-0.24,0.24-0.41,0.5-0.51,0.79H214.76z"/>
		<path class="st0" d="M216.9,19.02v3.19h-0.71v-5.66h0.71v0.74l0.02-0.02c0.4-0.4,0.86-0.63,1.39-0.7
			c0.11-0.01,0.23-0.02,0.35-0.02c0.28,0,0.54,0.04,0.78,0.12l-0.23,0.67c-0.17-0.06-0.36-0.08-0.56-0.08
			c-0.12,0-0.24,0.01-0.35,0.04c-0.34,0.06-0.64,0.22-0.9,0.48C217.07,18.12,216.9,18.53,216.9,19.02z"/>
		<path class="st0" d="M227.87,20.46l0.69,0.23c-0.13,0.25-0.3,0.48-0.52,0.69c-0.55,0.55-1.22,0.83-2,0.83s-1.45-0.28-2-0.83
			c-0.55-0.55-0.83-1.22-0.83-2c0-0.78,0.28-1.45,0.83-2c0.55-0.55,1.22-0.83,2-0.83s1.45,0.28,2,0.83
			c0.21,0.21,0.38,0.44,0.52,0.69l-0.69,0.23c-0.09-0.15-0.2-0.29-0.33-0.42c-0.41-0.41-0.91-0.62-1.5-0.62s-1.08,0.21-1.5,0.62
			c-0.41,0.41-0.62,0.91-0.62,1.5c0,0.58,0.21,1.08,0.62,1.5c0.41,0.41,0.91,0.62,1.5,0.62s1.08-0.21,1.5-0.62
			C227.67,20.74,227.78,20.6,227.87,20.46z"/>
		<path class="st0" d="M231.59,22.21c-0.78,0-1.45-0.28-2-0.83c-0.55-0.55-0.83-1.22-0.83-2c0-0.78,0.28-1.45,0.83-2
			c0.55-0.55,1.22-0.83,2-0.83c0.78,0,1.45,0.28,2,0.83c0.55,0.55,0.83,1.22,0.83,2c0,0.78-0.28,1.45-0.83,2
			C233.04,21.93,232.37,22.21,231.59,22.21z M231.59,21.5c0.58,0,1.08-0.21,1.5-0.62c0.41-0.41,0.62-0.91,0.62-1.5
			c0-0.58-0.21-1.08-0.62-1.5c-0.41-0.41-0.91-0.62-1.5-0.62c-0.58,0-1.08,0.21-1.5,0.62c-0.41,0.41-0.62,0.91-0.62,1.5
			c0,0.58,0.21,1.08,0.62,1.5C230.5,21.29,231,21.5,231.59,21.5z"/>
		<path class="st0" d="M235.8,19.05c-0.32-0.17-0.53-0.44-0.64-0.79c-0.04-0.13-0.06-0.26-0.06-0.4c0-0.21,0.05-0.41,0.16-0.62
			c0.17-0.32,0.43-0.53,0.79-0.64c0.13-0.04,0.26-0.06,0.39-0.06c0.21,0,0.42,0.05,0.62,0.16c0.32,0.17,0.53,0.43,0.64,0.78
			l0.03,0.13l-0.68,0.23c0-0.05-0.01-0.1-0.02-0.16c-0.05-0.16-0.15-0.28-0.3-0.35c-0.1-0.06-0.2-0.08-0.3-0.08
			c-0.06,0-0.14,0.02-0.25,0.05c-0.11,0.04-0.21,0.13-0.29,0.28c-0.05,0.1-0.08,0.2-0.08,0.3c0,0.06,0.01,0.12,0.03,0.18
			c0.05,0.16,0.15,0.28,0.3,0.37l1.15,0.61c0.41,0.22,0.68,0.55,0.82,0.99c0.05,0.17,0.08,0.33,0.08,0.49c0,0.27-0.07,0.53-0.2,0.79
			c-0.22,0.41-0.55,0.68-1,0.82c-0.17,0.05-0.34,0.08-0.5,0.08c-0.26,0-0.52-0.07-0.77-0.2c-0.41-0.22-0.68-0.55-0.82-1
			c-0.03-0.11-0.06-0.21-0.07-0.32l0.7-0.16c0,0.09,0.02,0.18,0.05,0.28c0.08,0.26,0.24,0.45,0.47,0.57
			c0.14,0.08,0.29,0.12,0.44,0.12c0.1,0,0.24-0.03,0.42-0.08c0.18-0.06,0.33-0.2,0.46-0.44c0.08-0.14,0.11-0.29,0.11-0.45
			c0-0.09-0.03-0.23-0.08-0.41c-0.05-0.18-0.2-0.33-0.44-0.45L235.8,19.05z"/>
		<path class="st0" d="M239.43,16.55v-2.83h0.71v2.83h1.41v0.71h-1.41v4.95h-0.71v-4.95h-1.41v-0.71H239.43z"/>
		<path class="st0" d="M242.53,19.05c-0.32-0.17-0.53-0.44-0.64-0.79c-0.04-0.13-0.06-0.26-0.06-0.4c0-0.21,0.05-0.41,0.16-0.62
			c0.17-0.32,0.43-0.53,0.79-0.64c0.13-0.04,0.26-0.06,0.39-0.06c0.21,0,0.42,0.05,0.62,0.16c0.32,0.17,0.53,0.43,0.64,0.78
			l0.03,0.13l-0.68,0.23c0-0.05-0.01-0.1-0.02-0.16c-0.05-0.16-0.15-0.28-0.3-0.35c-0.1-0.06-0.2-0.08-0.3-0.08
			c-0.06,0-0.14,0.02-0.25,0.05c-0.11,0.04-0.21,0.13-0.29,0.28c-0.05,0.1-0.08,0.2-0.08,0.3c0,0.06,0.01,0.12,0.03,0.18
			c0.05,0.16,0.15,0.28,0.3,0.37l1.15,0.61c0.41,0.22,0.68,0.55,0.82,0.99c0.05,0.17,0.08,0.33,0.08,0.49c0,0.27-0.07,0.53-0.2,0.79
			c-0.22,0.41-0.55,0.68-1,0.82c-0.17,0.05-0.34,0.08-0.5,0.08c-0.26,0-0.52-0.07-0.77-0.2c-0.41-0.22-0.68-0.55-0.82-1
			c-0.03-0.11-0.06-0.21-0.07-0.32l0.7-0.16c0,0.09,0.02,0.18,0.05,0.28c0.08,0.26,0.24,0.45,0.47,0.57
			c0.14,0.08,0.29,0.12,0.44,0.12c0.1,0,0.24-0.03,0.42-0.08c0.18-0.06,0.33-0.2,0.46-0.44c0.08-0.14,0.11-0.29,0.11-0.45
			c0-0.09-0.03-0.23-0.08-0.41c-0.05-0.18-0.2-0.33-0.44-0.45L242.53,19.05z"/>
		<path class="st0" d="M245.55,22.25c-0.12,0-0.23-0.04-0.31-0.13c-0.08-0.08-0.13-0.19-0.13-0.31c0-0.12,0.04-0.23,0.13-0.31
			c0.08-0.09,0.19-0.13,0.31-0.13c0.12,0,0.23,0.04,0.32,0.13c0.09,0.09,0.13,0.19,0.13,0.31c0,0.12-0.04,0.23-0.13,0.31
			C245.78,22.21,245.68,22.25,245.55,22.25z"/>
	</g>
</g>
</svg>
